<svg xmlns="http://www.w3.org/2000/svg" viewBox="0 0 493.894 493.894"><path d="M418.152 0H203.408a46.732 46.732 0 0 0-33.101 13.755L42.654 142.01a46.687 46.687 0 0 0-13.602 32.944v272.243c0 25.789 20.916 46.697 46.705 46.697h342.395c25.788 0 46.69-20.908 46.69-46.697v-400.5C464.842 20.91 443.94 0 418.152 0zm13.762 447.197c0 7.597-6.175 13.769-13.763 13.769H75.757c-7.605 0-13.781-6.172-13.781-13.769V184.238h131.322c12.088 0 21.928-9.839 21.928-21.939V32.927h202.926c7.587 0 13.763 6.172 13.763 13.77v400.5h-.001z"/><path d="M339.277 254.455H154.646c-13.632 0-24.695 11.054-24.695 24.695s11.063 24.695 24.695 24.695h184.631c13.636 0 24.695-11.054 24.695-24.695s-11.06-24.695-24.695-24.695zm0-82.316h-69.388c-13.635 0-24.694 11.054-24.694 24.694 0 13.642 11.059 24.695 24.694 24.695h69.388c13.636 0 24.695-11.053 24.695-24.695-.001-13.64-11.06-24.694-24.695-24.694zm0-82.314h-69.388c-13.635 0-24.694 11.05-24.694 24.695 0 13.641 11.059 24.694 24.694 24.694h69.388c13.636 0 24.695-11.054 24.695-24.694-.001-13.644-11.06-24.695-24.695-24.695zm0 257.596H154.646c-13.632 0-24.695 11.053-24.695 24.694s11.063 24.695 24.695 24.695h184.631c13.636 0 24.695-11.054 24.695-24.695s-11.06-24.694-24.695-24.694z"/></svg>