<svg height="350" width="350" xmlns="http://www.w3.org/2000/svg"><g fill="none" stroke-miterlimit="10"><path d="M340.838 88.84c-4.026-15.062-15.89-26.926-30.952-30.952-27.3-7.317-136.78-7.317-136.78-7.317s-109.48 0-136.78 7.317C21.262 61.914 9.398 73.778 5.372 88.84c-7.317 27.3-7.317 84.266-7.317 84.266s0 56.965 7.317 84.265c4.026 15.062 15.89 26.926 30.952 30.952 27.3 7.318 136.78 7.318 136.78 7.318s109.48 0 136.78-7.318c15.063-4.026 26.927-15.89 30.953-30.952 7.318-27.3 7.318-84.265 7.318-84.265s0-56.966-7.318-84.266z" fill="#ff0100"/><path d="M138.096 225.62l90.948-52.514-90.948-52.515z" fill="#fff"/></g></svg>
